<svg id="SvgjsSvg1001" width="288" height="288" xmlns="http://www.w3.org/2000/svg" version="1.1" xmlns:xlink="http://www.w3.org/1999/xlink" xmlns:svgjs="http://svgjs.com/svgjs"><defs id="SvgjsDefs1002"></defs><g id="SvgjsG1008" transform="matrix(0.9167,0,0,0.9167,11.994181721176858,11.99529415877015)"><svg xmlns="http://www.w3.org/2000/svg" width="288" height="288" viewBox="0 0 56 56"><g transform="matrix(3.77953 0 0 3.77953 1827.36 -1060.255)" fill="#ffffff" class="color000 svgShape"><circle cx="-476.081" cy="287.934" r="7.408" fill="#66ccff" class="colorffc107 svgShape"></circle><g fill="#ffffff" transform="translate(-480.314 -4.568)" class="colorfff svgShape"><path d="m -317.77344,118.80273 a 0.50004998,0.50004998 0 0 0 -0.0605,0.004 0.50004998,0.50004998 0 0 0 -0.44336,0.50781 l 0,1.48438 a 0.5019685,0.5019685 0 0 0 0,0.006 l -0.9961,0 c -1.93902,0 -3.5,1.56098 -3.5,3.5 l 0,17 c 0,1.93902 1.56098,3.5 3.5,3.5 l 17,0 c 1.93902,0 3.5,-1.56098 3.5,-3.5 l 0,-12.99805 -23.99804,0 0,-1.00391 23.99804,0 0,-2.99804 c 0,-1.93902 -1.56098,-3.5 -3.5,-3.5 l -1.0039,0 a 0.50004998,0.50004998 0 0 0 0,-0.006 l 0,-1.48438 a 0.50004998,0.50004998 0 0 0 -0.55274,-0.50781 0.50004998,0.50004998 0 0 0 -0.44336,0.50781 l 0,1.48438 a 0.50004998,0.50004998 0 0 0 0,0.006 l -6.00195,0 a 0.50004998,0.50004998 0 0 0 0,-0.006 l 0,-1.48438 a 0.50004998,0.50004998 0 0 0 -0.55273,-0.50781 0.50004998,0.50004998 0 0 0 -0.44336,0.50781 l 0,1.48438 a 0.50004998,0.50004998 0 0 0 0,0.006 l -6.00196,0 a 0.5019685,0.5019685 0 0 0 0,-0.006 l 0,-1.48438 a 0.50004998,0.50004998 0 0 0 -0.5,-0.51172 z m 0,4.50196 a 1.0000203,1.0000203 0 0 1 1,1 1.0000203,1.0000203 0 0 1 -1,1 1.0000203,1.0000203 0 0 1 -1,-1 1.0000203,1.0000203 0 0 1 1,-1 z m 7,0 a 0.99999946,0.99999946 0 0 1 1,1 0.99999946,0.99999946 0 0 1 -1,1 0.99999946,0.99999946 0 0 1 -1,-1 0.99999946,0.99999946 0 0 1 1,-1 z m 7,0 a 1.0000203,1.0000203 0 0 1 1,1 1.0000203,1.0000203 0 0 1 -1,1 1.0000203,1.0000203 0 0 1 -1,-1 1.0000203,1.0000203 0 0 1 1,-1 z m -4.74804,9 0,0.002 c 1.24265,-9.8e-4 2.24924,0.95195 2.24804,2.13086 -9.2e-4,0.61073 -0.32569,1.14736 -0.76172,1.59766 -1.26412,1.3141 -3.73632,3.76953 -3.73632,3.76953 0,0 -2.65705,-2.53003 -3.92969,-3.93946 -0.35924,-0.39726 -0.57171,-0.89645 -0.57227,-1.41992 10e-4,-1.17872 1.00948,-2.13554 2.25196,-2.13672 1.24261,-0.001 2.24919,0.81719 2.24804,1.9961 10e-4,-1.1788 1.00953,-1.99876 2.25196,-2 z" transform="matrix(.26458 0 0 .26458 86.459 257.628)" fill="#ffffff" class="color000 svgShape"></path></g></g></svg></g></svg>