<?xml version="1.0" encoding="UTF-8" standalone="no"?>
<svg xmlns:dc="http://purl.org/dc/elements/1.1/" xmlns:cc="http://creativecommons.org/ns#" xmlns:rdf="http://www.w3.org/1999/02/22-rdf-syntax-ns#" xmlns:svg="http://www.w3.org/2000/svg" xmlns="http://www.w3.org/2000/svg" xmlns:sodipodi="http://sodipodi.sourceforge.net/DTD/sodipodi-0.dtd" xmlns:inkscape="http://www.inkscape.org/namespaces/inkscape" width="48" height="48" viewBox="0 0 48 48.000001" id="svg2" version="1.1" inkscape:version="0.91 r13725" sodipodi:docname="clipboard-checklist-todo-tick-verify-list-check.svg">
  <defs id="defs4"/>
  <sodipodi:namedview id="base" pagecolor="#ffffff" bordercolor="#666666" borderopacity="1.0" inkscape:pageopacity="0.0" inkscape:pageshadow="2" inkscape:zoom="5.6" inkscape:cx="-14.547993" inkscape:cy="12.326003" inkscape:document-units="px" inkscape:current-layer="layer1" showgrid="false" units="px" inkscape:window-width="1366" inkscape:window-height="716" inkscape:window-x="-8" inkscape:window-y="-8" inkscape:window-maximized="1"/>
  
  <g inkscape:label="Layer 1" inkscape:groupmode="layer" id="layer1" transform="translate(0,-1004.3622)">
    <g style="display:inline" transform="translate(-1904.9514,-339.8005)" id="g17163">
      <path inkscape:connector-curvature="0" style="opacity:1;fill:#ffca07;fill-opacity:1;stroke:none;stroke-width:0.26458335;stroke-linecap:round;stroke-linejoin:round;stroke-miterlimit:4;stroke-dasharray:none;stroke-dashoffset:0;stroke-opacity:1" d="m 1952.9514,1368.1627 a 24,24 0 0 0 -24,-24 24,24 0 0 0 -24,24 24,24 0 0 0 24,24 24,24 0 0 0 24,-24 z" id="path17155"/>
      <g id="g17161" style="display:inline;fill:#ffffff" transform="translate(1912.9507,329.7997)">
        <path inkscape:connector-curvature="0" style="fill:#ffffff;fill-rule:evenodd;stroke:none;stroke-width:0.99999648;stroke-linecap:round;stroke-linejoin:round;stroke-miterlimit:4;stroke-dasharray:none;stroke-opacity:1" d="m 1836.4219,-405.16602 0,25 21,0 0,-25 -4.623,0 0,2.12305 -11.75,0 0,-2.12305 z m 14.4863,9.00196 a 0.50005012,0.50005012 0 0 1 0.3633,0.85742 l -5.9922,5.99414 a 0.50005012,0.50005012 0 0 1 -0.707,0 l -1.9961,-1.99805 a 0.50005012,0.50005012 0 1 1 0.707,-0.70703 l 1.6426,1.64453 5.6387,-5.64062 a 0.50005012,0.50005012 0 0 1 0.3437,-0.15039 z" transform="translate(-1830.9212,1431.029)" id="path17157"/>
        <path inkscape:connector-curvature="0" style="color:#000000;font-style:normal;font-variant:normal;font-weight:normal;font-stretch:normal;font-size:medium;line-height:normal;font-family:sans-serif;text-indent:0;text-align:start;text-decoration:none;text-decoration-line:none;text-decoration-style:solid;text-decoration-color:#000000;letter-spacing:normal;word-spacing:normal;text-transform:none;direction:ltr;writing-mode:lr-tb;baseline-shift:baseline;text-anchor:start;white-space:normal;clip-rule:nonzero;display:inline;overflow:visible;visibility:visible;opacity:1;isolation:auto;mix-blend-mode:normal;color-interpolation:sRGB;color-interpolation-filters:linearRGB;solid-color:#000000;solid-opacity:1;fill:#ffffff;fill-opacity:1;fill-rule:evenodd;stroke:none;stroke-width:0.99870259;stroke-linecap:round;stroke-linejoin:round;stroke-miterlimit:4;stroke-dasharray:none;stroke-dashoffset:0;stroke-opacity:1;color-rendering:auto;image-rendering:auto;shape-rendering:auto;text-rendering:auto;enable-background:accumulate" d="m 1846.9238,-408.76758 c -1.3256,-10e-4 -2.412,1.04553 -2.4883,2.35156 l -2.5136,0 0,2.5 10,0 0,-2.5 -2.5137,0 c -0.076,-1.30432 -1.1601,-2.35059 -2.4844,-2.35156 z m 0,0.9961 c 0.787,5.6e-4 1.4153,0.59305 1.4864,1.35546 l -2.9766,0 c 0.072,-0.76323 0.7026,-1.35603 1.4902,-1.35546 z" transform="translate(-1830.9212,1431.029)" id="path17159"/>
      </g>
    </g>
  </g>

	<metadata>
		<rdf:RDF xmlns:rdf="http://www.w3.org/1999/02/22-rdf-syntax-ns#" xmlns:rdfs="http://www.w3.org/2000/01/rdf-schema#" xmlns:dc="http://purl.org/dc/elements/1.1/">
			<rdf:Description about="https://iconscout.com/legal#licenses" dc:title="clipboard-checklist-todo-tick-verify-list-check" dc:description="clipboard-checklist-todo-tick-verify-list-check" dc:publisher="Iconscout" dc:date="2017-04-26" dc:format="image/svg+xml" dc:language="en">
				<dc:creator>
					<rdf:Bag>
						<rdf:li>Vignesh Oviyan</rdf:li>
					</rdf:Bag>
				</dc:creator>
			</rdf:Description>
		</rdf:RDF>
    </metadata></svg>
